# xmcd
#
# Track frame offsets:
#	150
#	15037
#	33668
#	45885
#	72793
#	90602
#	108225
#	134695
#	158110
#	180177
#
# Disc length: 2575 seconds
#
# Revision: 0
# Processed by: cddbd v1.5.2PL0 Copyright (c) Steve Scherf et al.
# Submitted via: audiograbber 1.83.01
#
DISCID=6c0a0d0a
DTITLE=Dr. Duke Tumatoe   - You've Got the Problem
DYEAR=1900
DGENRE=Blues
TTITLE0=You've Got the Problem
TTITLE1=Real Mean Woman
TTITLE2=Don't Ask
TTITLE3=Enough Trouble of My Own
TTITLE4=My Baby is a Nudist
TTITLE5=Bad Day
TTITLE6=Be So Easy
TTITLE7=Mudcat Man
TTITLE8=Kid Stuff
TTITLE9=Moanin' After Blues
EXTD=
EXTT0=
EXTT1=
EXTT2=
EXTT3=
EXTT4=
EXTT5=
EXTT6=
EXTT7=
EXTT8=
EXTT9=
PLAYORDER=
